<?xml version="1.0" encoding="UTF-8"?>
<svg version="1.1" xmlns="http://www.w3.org/2000/svg" width="64" height="64">
<path d="M0 0 C21.12 0 42.24 0 64 0 C64 21.12 64 42.24 64 64 C42.88 64 21.76 64 0 64 C0 42.88 0 21.76 0 0 Z " fill="#030303" transform="translate(0,0)"/>
<path d="M0 0 C3.73131143 0.42384981 5.5266981 2.1380186 8.1418457 4.72192383 C8.94560135 5.50976761 9.74935699 6.29761139 10.57746887 7.10932922 C11.43491196 7.96657089 12.29235504 8.82381256 13.17578125 9.70703125 C14.06033493 10.58397141 14.94488861 11.46091156 15.85624695 12.36442566 C17.72366872 14.22103907 19.58747374 16.08063457 21.4465332 17.94555664 C23.8318568 20.3367898 26.23496016 22.70923149 28.64332294 25.0772295 C30.93636676 27.33825424 33.21125144 29.61739718 35.48828125 31.89453125 C36.35584549 32.74570023 37.22340973 33.5968692 38.11726379 34.47383118 C38.90525864 35.27113144 39.69325348 36.0684317 40.50512695 36.88989258 C41.20587845 37.58858963 41.90662994 38.28728668 42.62861633 39.00715637 C44 41 44 41 43.71842957 43.25688171 C43 45 43 45 41.26460266 45.72416687 C39 46 39 46 36.95573425 44.59065247 C36.2332399 43.87213608 35.51074554 43.15361969 34.76635742 42.41333008 C33.53069283 41.20130669 33.53069283 41.20130669 32.27006531 39.96479797 C31.39074844 39.07535995 30.51143158 38.18592194 29.60546875 37.26953125 C28.69871902 36.36756516 27.7919693 35.46559906 26.85774231 34.53630066 C24.93898841 32.62492237 23.02957954 30.70478182 21.1262207 28.77807617 C18.683742 26.307109 16.21950158 23.85926892 13.74782848 21.41754627 C11.39651303 19.08862681 9.06441651 16.74085724 6.73046875 14.39453125 C5.84103073 13.51521439 4.95159271 12.63589752 4.03520203 11.72993469 C3.22718643 10.90615829 2.41917084 10.0823819 1.58666992 9.23364258 C0.86815353 8.51114822 0.14963715 7.78865387 -0.59065247 7.04426575 C-2 5 -2 5 -1.78666687 2.79789734 C-1 1 -1 1 0 0 Z " fill="#F4F4F4" transform="translate(11,9)"/>
<path d="M0 0 C5.84605552 0.46969153 9.84400785 6.32561379 13.75610352 10.25512695 C15.31085051 11.81084948 16.88571953 13.34400867 18.46289062 14.87695312 C19.45181854 15.86067631 20.43949363 16.8456609 21.42578125 17.83203125 C22.32723877 18.72639893 23.22869629 19.6207666 24.1574707 20.54223633 C26 23 26 23 25.78588867 25.32299805 C25 27 25 27 23.34106445 27.79956055 C21 28 21 28 18.41870117 26.06567383 C17.44657932 25.12661483 16.48879438 24.17257078 15.54296875 23.20703125 C15.03574783 22.70459396 14.52852692 22.20215668 14.00593567 21.68449402 C12.93668061 20.61864209 11.87371683 19.54644707 10.81665039 18.46850586 C9.19337263 16.81846944 7.5451834 15.19677377 5.89257812 13.57617188 C4.85776801 12.53805773 3.82450999 11.49839364 2.79296875 10.45703125 C2.29725876 9.97144241 1.80154877 9.48585358 1.29081726 8.98554993 C-0.06567383 7.58129883 -0.06567383 7.58129883 -2 5 C-1.85960708 2.68090777 -1.63773461 1.63773461 0 0 Z " fill="#F2F2F2" transform="translate(11,27)"/>
<path d="M0 0 C5.84605552 0.46969153 9.84400785 6.32561379 13.75610352 10.25512695 C15.31085051 11.81084948 16.88571953 13.34400867 18.46289062 14.87695312 C19.45181854 15.86067631 20.43949363 16.8456609 21.42578125 17.83203125 C22.32723877 18.72639893 23.22869629 19.6207666 24.1574707 20.54223633 C26 23 26 23 25.78588867 25.32299805 C25 27 25 27 23.34106445 27.79956055 C21 28 21 28 18.41870117 26.06567383 C17.44657932 25.12661483 16.48879438 24.17257078 15.54296875 23.20703125 C15.03574783 22.70459396 14.52852692 22.20215668 14.00593567 21.68449402 C12.93668061 20.61864209 11.87371683 19.54644707 10.81665039 18.46850586 C9.19337263 16.81846944 7.5451834 15.19677377 5.89257812 13.57617188 C4.85776801 12.53805773 3.82450999 11.49839364 2.79296875 10.45703125 C2.29725876 9.97144241 1.80154877 9.48585358 1.29081726 8.98554993 C-0.06567383 7.58129883 -0.06567383 7.58129883 -2 5 C-1.85960708 2.68090777 -1.63773461 1.63773461 0 0 Z " fill="#F2F2F2" transform="translate(29,9)"/>
<path d="M0 0 C2.79394497 0.28902879 4.07919192 1.06206934 6.3125 2.8125 C8 5 8 5 7.75 7.25 C7.5025 7.8275 7.255 8.405 7 9 C5.35 9.33 3.7 9.66 2 10 C2 9.34 2 8.68 2 8 C1.34 8 0.68 8 0 8 C-2 5 -2 5 -1.6875 2.875 C-1 1 -1 1 0 0 Z " fill="#E4E4E4" transform="translate(47,9)"/>
<path d="M0 0 C2.79394497 0.28902879 4.07919192 1.06206934 6.3125 2.8125 C8 5 8 5 7.75 7.25 C7 9 7 9 5.3125 9.8125 C3 10 3 10 0.1875 7.8125 C-2 5 -2 5 -1.875 2.75 C-1 1 -1 1 0 0 Z " fill="#E8E8E8" transform="translate(11,45)"/>
</svg>
